<?xml version="1.0" encoding="UTF-8" standalone="no"?>
<!-- Created with Inkscape (http://www.inkscape.org/) -->

<svg
   width="200.10959mm"
   height="200.0983mm"
   viewBox="0 0 200.10959 200.0983"
   version="1.1"
   id="svg5"
   xml:space="preserve"
   inkscape:version="1.2 (dc2aedaf03, 2022-05-15)"
   sodipodi:docname="kolhatoplogopostedit.svg"
   xmlns:inkscape="http://www.inkscape.org/namespaces/inkscape"
   xmlns:sodipodi="http://sodipodi.sourceforge.net/DTD/sodipodi-0.dtd"
   xmlns="http://www.w3.org/2000/svg"
   xmlns:svg="http://www.w3.org/2000/svg"><sodipodi:namedview
     id="namedview7"
     pagecolor="#ffffff"
     bordercolor="#999999"
     borderopacity="1"
     inkscape:showpageshadow="0"
     inkscape:pageopacity="0"
     inkscape:pagecheckerboard="0"
     inkscape:deskcolor="#d1d1d1"
     inkscape:document-units="mm"
     showgrid="false"
     inkscape:zoom="0.72515432"
     inkscape:cx="289.59353"
     inkscape:cy="342.68568"
     inkscape:window-width="1920"
     inkscape:window-height="1001"
     inkscape:window-x="-9"
     inkscape:window-y="-9"
     inkscape:window-maximized="1"
     inkscape:current-layer="g480" /><defs
     id="defs2"><inkscape:path-effect
       effect="bend_path"
       id="path-effect2050"
       is_visible="true"
       lpeversion="1"
       bendpath="m 13.85508,151.62642 16.899888,-4.81429 12.979302,-3.63088 9.095128,-0.10567 13.638535,-0.83729 14.712845,-0.94648 9.302505,-0.27132 36.611007,0.67281"
       prop_scale="1.2523384"
       scale_y_rel="false"
       vertical="false"
       hide_knot="false"
       bendpath-nodetypes="cccccccc" /><inkscape:path-effect
       effect="bend_path"
       id="path-effect1908"
       is_visible="true"
       lpeversion="1"
       bendpath="M 3.3278921,51.055424 58.949346,45.93384 123.29951,47.251033"
       prop_scale="0.96757407"
       scale_y_rel="false"
       vertical="false"
       hide_knot="false"
       bendpath-nodetypes="ccc" /><inkscape:path-effect
       effect="bounding_box"
       id="path-effect1690"
       is_visible="true"
       lpeversion="1"
       linkedpath=""
       visualbounds="false" /><inkscape:path-effect
       effect="bend_path"
       id="path-effect1636"
       is_visible="true"
       lpeversion="1"
       bendpath="M 3.9091263,52.228104 C 38.865463,47.97291 63.73894,47.626014 82.684084,50.412866 c 25.421666,3.739556 38.623346,7.702556 38.623346,7.702556"
       prop_scale="1.1022273"
       scale_y_rel="false"
       vertical="false"
       hide_knot="false"
       bendpath-nodetypes="csc" /></defs><g
     inkscape:label="Layer 1"
     inkscape:groupmode="layer"
     id="layer1"
     transform="translate(0.13356972,-28.747716)"><g
       id="SVGRepo_bgCarrier"
       stroke-width="0"
       transform="matrix(8.8194444,0,0,8.8194444,-4.1279452,21.099299)"
       style="fill:none" /><g
       id="SVGRepo_tracerCarrier"
       stroke-linecap="round"
       stroke-linejoin="round"
       transform="matrix(8.8194444,0,0,8.8194444,-4.1279452,21.099299)"
       style="fill:none" /><g
       id="SVGRepo_iconCarrier"
       transform="matrix(8.8194444,0,0,8.8194444,-4.1279452,21.099299)"
       style="display:inline;fill:none"><g
         fill="#f44336"
         id="g480"
         transform="matrix(0.1875,0,0,0.1875,-0.20239487,0.21018455)"
         style="display:inline"><path
           d="m 27.12,90.29 c 10.82,-3.11 38.94,-12.05 75.93,-9.98 1.17,0.07 1.3,1.75 0.16,1.98 -17.17,3.53 -60.46,12.67 -72.57,17.43 -1.93,0.76 -4.11,-0.07 -5.04,-1.93 -0.3,-0.61 -0.62,-1.25 -0.94,-1.88 a 3.974,3.974 0 0 1 2.46,-5.62 z"
           id="path472" /><path
           d="M 6.96,113.3 C 23.97,109.06 95.36,91.17 123,91.46 c 1.2,0.01 1.38,1.72 0.21,1.98 -21.5,4.65 -95.62,21.85 -112.61,30.17 -2.17,1.06 -4.77,-0.07 -5.53,-2.36 l -0.8,-2.39 c -0.87,-2.63 0.43,-5 2.69,-5.56 z"
           stroke="#f44336"
           stroke-miterlimit="10"
           id="path474" /><path
           d="M 6.5,27.33 C 3,28.81 3.51,21.88 5.93,20 12.94,14.55 30.08,8.14 40,4.18 42.04,3.37 44.04,5.46 43.15,7.47 37.75,19.68 21.88,55.25 12,86.72 11.49,88.34 8.17,88.43 8,86.73 7.1,77.53 13.5,52.16 27.11,22.5 27.6,21.44 26.53,20.3 25.39,20.56 21.4,21.5 15.28,23.63 6.5,27.33 Z"
           stroke="#f44336"
           stroke-miterlimit="10"
           id="path476"
           style="display:none" /><path
           d="m 111.8,8.7 c -0.19,-0.05 -1.39,-0.37 -1.84,-0.39 -29.98,-1.04 -43.97,8.48 -44.47,8.88 -1.72,1.39 -1.99,3.91 -0.6,5.62 1.11,1.37 2.24,1.54 2.84,1.53 0.25,-0.01 0.47,0.15 0.54,0.4 1.23,4.91 1.44,11.94 -0.75,20.18 C 63.73,59.14 55.46,67 51.19,67 c -0.24,0 -0.47,-0.03 -0.68,-0.09 -1.74,-0.46 -3.52,-3.21 -4.53,-7 -1.51,-5.71 -1.26,-13.19 0.69,-20.53 2.65,-9.98 7.52,-16.82 11.66,-20.01 1.9,-1.46 3.42,-3.36 4.53,-5.49 0.01,-0.01 0.01,-0.03 0.02,-0.04 0.5,-0.96 2.83,-5.48 0.11,-5.54 -9.83,0 -20.56,12.01 -25.01,28.76 -4.91,18.48 -0.33,35.73 10.23,38.54 0.98,0.26 1.98,0.39 3,0.39 9.83,0 20.56,-12.01 25.01,-28.76 2.48,-9.32 2.53,-18.32 0.62,-25.31 -0.23,-0.83 0.23,-1.69 1.05,-1.97 2.99,-1.03 8.76,-2.08 13.8,-2.8 0.79,-0.11 1.33,0.79 0.84,1.42 -3.7,4.88 -6.8,11.24 -8.73,18.5 -4.91,18.48 -0.33,35.73 10.23,38.54 0.98,0.26 1.98,0.39 3,0.39 9.83,0 20.56,-12.01 25.01,-28.76 4.9,-18.48 0.32,-35.74 -10.24,-38.54 z m 1.53,36.22 C 109.55,59.14 101.29,67 97.02,67 96.78,67 96.55,66.97 96.34,66.91 94.6,66.45 92.82,63.7 91.81,59.91 90.3,54.2 90.55,46.72 92.5,39.38 96.28,25.17 104.54,17.3 108.82,17.3 c 0.24,0 0.46,0.03 0.68,0.09 3.66,0.98 7.91,12.18 3.83,27.53 z"
           stroke="#f44336"
           stroke-miterlimit="10"
           id="path478"
           style="display:none" /><g
           aria-label="כל הטופ"
           id="text601"
           style="font-size:56.832px;font-family:'Bamberger FM';-inkscape-font-specification:'Bamberger FM, Normal';display:none;fill:#f44336;fill-opacity:1;fill-rule:evenodd;stroke:#ff4336;stroke-width:0;stroke-linejoin:round;stroke-miterlimit:2.3;stroke-opacity:1"
           transform="matrix(0.97547567,-0.04097228,-0.05495253,2.0029661,5.6646734,-49.569837)"
           class="UnoptimicedTransforms"
           inkscape:path-effect="#path-effect1908"><path
             d="m 122.99288,45.84226 c 0.0103,3.33686 0.0385,5.757459 0.085,7.261778 -0.1025,1.244152 -0.15622,1.995509 -0.16142,2.251667 -0.10151,1.20796 -0.17276,1.884667 -0.21415,2.030533 -0.0421,0.182388 -0.10747,0.566145 -0.19597,1.150885 -0.0885,0.584797 -0.21486,1.150476 -0.37898,1.696994 -0.37017,1.275446 -0.78946,2.183268 -1.25845,2.72321 -0.46905,0.539996 -1.41569,1.088118 -2.83769,1.644323 -0.84581,0.348545 -1.97407,0.507706 -3.38585,0.477544 -1.86972,-0.03995 -3.16693,-0.08599 -3.89159,-0.138108 -0.36234,-0.02606 -0.7247,-0.05212 -1.08707,-0.07819 -0.22897,-0.0049 -0.72542,0.02115 -1.48913,0.07812 l -0.28619,-0.0061 c -0.41972,-0.009 -0.7053,-0.106668 -0.8568,-0.293093 -0.11332,-0.1856 -0.16889,-0.461593 -0.1666,-0.827913 0.0395,-0.218975 0.0605,-0.511655 0.0628,-0.877977 -0.0161,-0.476638 -0.0322,-0.953275 -0.0484,-1.429912 0.004,-0.586149 0.13993,-0.949605 0.40911,-1.090491 0.26938,-0.177496 0.69133,-0.223552 1.26552,-0.138135 l 2.06906,0.04372 c 0.30652,0.0065 0.74715,0.01579 1.32189,0.02793 0.57513,-0.02449 1.03497,-0.01478 1.37938,0.02914 1.33956,0.138238 2.32074,-0.170837 2.94551,-0.927453 0.6251,-0.792991 0.97154,-2.069193 1.03704,-3.827119 0.0649,-1.721517 0.12778,-3.296457 0.18855,-4.724823 0.0999,-1.463568 0.17382,-2.471414 0.22109,-3.019655 0.13684,-1.316979 0.21363,-2.488202 0.22981,-3.514405 -0.007,-0.769953 -0.0146,-1.539904 -0.022,-2.309854 0.003,-0.183228 0.009,-0.586329 0.019,-1.209304 0.0488,-0.622189 1.4e-4,-1.246344 -0.14631,-1.872449 -0.14249,-0.88268 -0.54316,-1.51375 -1.20273,-1.893528 -0.65948,-0.379724 -1.4206,-0.541512 -2.28216,-0.485409 -0.50902,0.02649 -1.23316,0.04868 -2.17235,0.06658 -0.90006,0.01868 -1.58455,0.005 -2.05362,-0.041 -0.27382,-0.0055 -0.56752,0.02531 -0.88102,0.09233 -0.3132,0.03039 -0.60666,0.04284 -0.88044,0.03737 -0.43021,-0.0086 -0.74272,-0.06979 -0.93759,-0.1836 -0.19461,-0.150432 -0.29107,-0.372197 -0.28922,-0.665256 l 0.0176,-2.802441 c 0.003,-0.476249 0.0837,-0.822677 0.24219,-1.039393 0.19801,-0.252555 0.61133,-0.372638 1.23988,-0.360236 1.17832,0.04157 2.35658,0.08314 3.53479,0.124717 0.43208,0.0085 0.76615,-0.0032 1.00227,-0.03519 0.27539,-0.03121 0.57024,-0.04372 0.88451,-0.03752 2.75025,0.05426 4.63096,0.402909 5.64091,1.046114 1.12717,0.682241 1.89488,1.577215 2.30469,2.685371 0.40985,1.108255 0.73113,2.672574 0.96382,4.694069 0.0943,1.139096 0.11453,3.026715 0.0613,5.666172 -1e-5,-2e-6 -2e-5,-3e-6 -3e-5,-5e-6 z"
             id="path1368"
             style="fill:#f44336;fill-opacity:1;stroke:#ff4336;stroke-opacity:1"
             inkscape:original-d="m 124.65734,45.834241 q 0.11366,5.171712 0.22733,7.501824 -0.11367,1.932288 -0.11367,2.330112 -0.11366,1.875456 -0.17049,2.102784 -0.0568,0.28416 -0.1705,1.193472 -0.11366,0.909312 -0.34099,1.761792 -0.51149,1.98912 -1.19347,2.8416 -0.68199,0.85248 -2.78477,1.761792 -1.25031,0.56832 -3.35309,0.56832 -2.78477,0 -3.86458,-0.05683 l -1.0798,-0.05683 q -0.341,0 -1.47764,0.113664 h -0.28416 q -0.62515,0 -0.85248,-0.28416 -0.17049,-0.28416 -0.17049,-0.85248 0.0568,-0.340992 0.0568,-0.909312 l -0.0568,-1.477632 q 0,-0.909312 0.39782,-1.13664 0.39783,-0.28416 1.25031,-0.170496 h 2.04595 q 0.45465,0 1.30713,0 0.85248,-0.05683 1.36397,0 1.98912,0.170496 2.89843,-1.022976 0.90932,-1.250304 0.96615,-3.97824 0.0568,-2.671104 0.11366,-4.887552 0.11367,-2.27328 0.1705,-3.12576 0.17049,-2.045952 0.17049,-3.637248 l -0.0568,-2.386944 q 0,-0.28416 0,-1.250304 0.0568,-0.966144 -0.17049,-1.932288 -0.22733,-1.363968 -1.19348,-1.932288 -0.96614,-0.56832 -2.21644,-0.454656 -0.73882,0.05683 -2.10279,0.113664 -1.30713,0.05683 -1.98912,0 -0.39782,0 -0.85248,0.113664 -0.45465,0.05683 -0.85248,0.05683 -0.62515,0 -0.90931,-0.170496 -0.28416,-0.227328 -0.28416,-0.681984 v -2.898432 q 0,-0.738816 0.22733,-1.079808 0.28416,-0.397824 1.19347,-0.397824 l 3.40992,0.05683 q 0.62515,0 0.96614,-0.05683 0.39783,-0.05683 0.85248,-0.05683 3.97824,0 5.45588,0.966144 1.64812,1.022976 2.27328,2.727936 0.62515,1.70496 1.02297,4.83072 0.1705,1.761792 0.1705,5.853696 z" /><path
             d="m 104.09617,38.69804 c -0.0994,0.492543 -0.19875,0.985082 -0.29794,1.477617 -0.11898,0.547575 -0.33594,1.366437 -0.65052,2.459483 -0.27555,1.093332 -0.60862,2.167175 -0.99877,3.221441 -0.11699,0.290641 -0.19506,0.563768 -0.2343,0.819362 -0.0392,0.218971 -0.0782,0.401314 -0.11726,0.547029 -0.1564,0.802596 -0.35098,1.45796 -0.58371,1.965925 -0.27153,0.617023 -0.56275,1.801508 -0.87207,3.553077 -0.1161,0.876623 -0.28979,1.770315 -0.520639,2.681128 -0.153902,0.765919 -0.384433,1.548501 -0.691097,2.347789 -0.268078,0.762836 -0.440467,1.273175 -0.516689,1.5273 -0.229394,0.617761 -0.420015,1.272905 -0.572028,1.965509 -0.113801,0.65682 -0.208561,1.112491 -0.28456,1.367265 -0.227764,0.87404 -0.531975,1.453532 -0.912858,1.738329 -0.152387,0.106605 -0.362078,0.175365 -0.62909,0.20628 -0.267016,0.03091 -0.553201,0.0248 -0.85864,-0.01834 -0.267132,-0.0057 -0.515183,-0.011 -0.744154,-0.0159 -0.190808,-0.0041 -0.438777,0.0089 -0.743864,0.03903 -0.266927,0.03091 -0.591161,0.04229 -0.97274,0.03414 -0.343644,-0.04395 -0.59205,-0.104177 -0.745201,-0.18067 -0.115232,-0.112288 -0.173771,-0.2966 -0.175551,-0.552906 -0.0015,-0.219664 0.05345,-0.548049 0.165103,-0.98497 0.111646,-0.436894 0.204984,-0.782839 0.279791,-1.03747 0.07483,-0.254692 0.149823,-0.491077 0.224981,-0.709155 0.07493,-0.254705 0.130994,-0.47317 0.168161,-0.655454 0.243951,-0.800306 0.488432,-1.60063 0.733445,-2.400973 0.30381,-0.765098 0.82989,-2.469675 1.590728,-5.129459 0.09488,-0.364194 0.189855,-0.72839 0.284922,-1.092591 0.49523,-1.711348 0.83904,-3.094571 1.029689,-4.153217 0.228847,-1.203754 0.477944,-2.352132 0.747391,-3.445283 0.153895,-0.656034 0.308057,-1.312077 0.462486,-1.96813 0.116072,-0.474624 0.28944,-1.238364 0.522102,-2.296618 0.271322,-1.09288 0.446763,-1.730908 0.524566,-1.912143 0.194789,-0.545499 0.292284,-0.927983 0.292129,-1.147785 -3.36e-4,-0.47613 -0.293848,-0.774949 -0.880995,-0.896542 -0.156559,-0.03974 -0.391367,-0.06274 -0.704408,-0.06898 -0.273902,-0.0055 -0.802098,0.02062 -1.584371,0.07825 -0.312885,0.03037 -0.977916,0.03541 -1.995136,0.01511 -1.017406,-0.05692 -1.819651,-0.09123 -2.406526,-0.102937 -0.861039,-0.05379 -1.839396,-0.09161 -2.93498,-0.113468 -1.29014,0.08408 -1.942279,-0.514571 -1.956968,-1.795921 -0.02736,-0.677675 -0.05475,-1.355348 -0.08217,-2.03302 l -0.02087,-1.812192 -0.0076,-0.65898 c -0.0034,-0.292886 0.05311,-0.511373 0.169541,-0.655503 0.155367,-0.179962 0.469118,-0.283618 0.941207,-0.310967 0.943815,-0.09131 1.57359,-0.115576 1.888922,-0.07279 l 0.177195,0.0035 c 0.196884,0.0039 0.393607,-0.01059 0.590197,-0.04334 0.19659,-0.03275 0.39335,-0.0472 0.590252,-0.04334 0.551325,0.0108 0.8883,0.328594 1.010638,0.953384 l 0.0076,1.09848 c 0.0025,0.366149 0.102429,0.606109 0.29958,0.719823 0.236457,0.1145 0.609722,0.14017 1.120006,0.07701 1.375008,0.02712 2.573299,0.06907 3.594779,0.125841 1.198201,0.04195 2.396346,0.0839 3.594434,0.125854 l 2.94614,0.05813 c 0.4321,0.0085 0.74593,0.14293 0.94128,0.403218 0.1955,0.223664 0.29256,0.482007 0.29136,0.775055 0.0736,1.173364 0.10986,1.870847 0.10893,2.090268 -0.003,0.659399 -0.10388,1.408278 -0.30271,2.246913 -0.0998,0.529183 -0.19955,1.058362 -0.29913,1.587536 z"
             id="path1370"
             style="fill:#f44336;fill-opacity:1;stroke:#ff4336;stroke-opacity:1"
             inkscape:original-d="m 106.18691,38.843905 -0.28416,1.534464 q -0.1705,0.85248 -0.62515,2.55744 -0.39783,1.70496 -0.96615,3.353088 -0.17049,0.454656 -0.22733,0.85248 -0.0568,0.340992 -0.11366,0.56832 -0.22733,1.250304 -0.56832,2.045952 -0.39782,0.966144 -0.85248,3.69408 -0.1705,1.363968 -0.51149,2.784768 -0.22733,1.193472 -0.68198,2.443776 -0.39783,1.193472 -0.51149,1.591296 -0.34099,0.966144 -0.56832,2.045952 -0.1705,1.022976 -0.284159,1.4208 -0.340992,1.363968 -0.909312,1.818624 -0.227328,0.170496 -0.625152,0.227328 -0.397824,0.05683 -0.85248,0 -0.397824,0 -0.738816,0 -0.28416,0 -0.738816,0.05683 -0.397824,0.05683 -0.966144,0.05683 -0.511488,-0.05683 -0.738816,-0.170496 -0.170496,-0.170496 -0.170496,-0.56832 0,-0.340992 0.170496,-1.022976 0.170496,-0.681984 0.28416,-1.079808 0.113664,-0.397824 0.227328,-0.738816 0.113664,-0.397824 0.170496,-0.681984 l 0.738816,-2.500608 q 0.454656,-1.193472 1.591296,-5.342208 l 0.28416,-1.13664 q 0.738816,-2.671104 1.022976,-4.319232 0.340992,-1.875456 0.738816,-3.580416 l 0.454656,-2.045952 q 0.170491,-0.738816 0.511491,-2.386944 0.39782,-1.70496 0.51148,-1.98912 0.28416,-0.85248 0.28416,-1.193472 0,-0.738816 -0.85248,-0.909312 -0.22732,-0.05683 -0.681979,-0.05683 -0.397824,0 -1.534464,0.113664 -0.454656,0.05683 -1.932288,0.05683 -1.477632,-0.05683 -2.330112,-0.05683 -1.250304,-0.05683 -2.8416,-0.05683 -1.875456,0.170496 -1.875456,-1.818624 l -0.05683,-2.102784 v -1.875456 -0.681984 q 0,-0.454656 0.170496,-0.681984 0.227328,-0.28416 0.909312,-0.340992 1.363968,-0.170496 1.818624,-0.113664 h 0.170496 q 0.28416,0 0.56832,-0.05683 0.28416,-0.05683 0.56832,-0.05683 0.795648,0 0.966144,0.966145 v 1.13664 q 0,0.56832 0.28416,0.738816 0.340992,0.170496 1.079808,0.05683 1.98912,0 3.466752,0.05683 l 3.466747,0.05683 h 2.8416 q 0.62515,0 0.90931,0.397824 0.28416,0.340992 0.28416,0.795648 0.11367,1.818624 0.11367,2.159616 0,1.022976 -0.28416,2.330112 z" /><path
             d="m 75.087995,45.358811 c 0.150343,1.576137 0.224548,3.241909 0.223631,4.997861 l 0.02357,1.097909 c 0.0035,1.060911 0.007,2.121821 0.01063,3.182729 -0.03444,1.974624 -0.03217,2.962329 0.0062,2.963137 l 0.03789,1.756647 c 0.01579,0.731893 0.04758,1.317933 0.09528,1.757864 0.04614,0.366816 0.07625,0.879508 0.09039,1.538289 0.0094,0.43915 -0.0607,0.730326 -0.210238,0.873441 -0.111373,0.143943 -0.299858,0.249661 -0.565428,0.317149 -0.266387,0.03089 -0.475079,0.0813 -0.626077,0.151235 -0.0755,0.03496 -0.284982,0.04878 -0.628451,0.04144 -0.34262,0.02926 -0.666979,0.02233 -0.973172,-0.02078 0.07722,0.03822 -0.0182,0.03618 -0.286227,-0.0061 -0.611499,-0.04963 -1.033178,-0.131783 -1.265005,-0.246446 -0.231829,-0.114664 -0.368297,-0.227288 -0.409321,-0.337876 -0.04197,-0.147165 -0.06866,-0.440329 -0.08005,-0.879408 l -0.106776,-4.116501 -0.084,-3.238313 c -0.0076,-0.292661 -0.03868,-0.750588 -0.09335,-1.373371 -0.05563,-0.65947 -0.0709,-1.244869 -0.04565,-1.756371 -0.0057,-0.219548 -0.03022,-0.421195 -0.07357,-0.604952 -0.04335,-0.183757 -0.06695,-0.348811 -0.07077,-0.495177 0.02763,-0.419996 0.05529,-0.839994 0.083,-1.259993 0.06744,-1.86375 0.102532,-2.759049 0.104423,-2.685867 -0.07703,-1.48274 -0.154204,-2.965475 -0.231531,-4.448204 -0.07638,-1.446138 -0.152904,-2.892271 -0.229576,-4.338399 -0.01906,-0.731854 -0.250448,-1.376439 -0.695172,-1.933923 -0.405598,-0.55667 -1.078348,-0.844358 -2.017414,-0.863092 -0.117384,-0.0023 -0.547276,0.0074 -1.289599,0.02912 -0.703189,0.02253 -1.349247,-0.0086 -1.93844,-0.09352 -0.627183,-0.04907 -1.175026,-0.06 -1.643365,-0.03279 -0.429212,0.02799 -0.781331,0.02097 -1.05645,-0.02108 -0.313018,-0.0062 -0.781342,0.02097 -1.404793,0.08164 -0.420952,0.07647 -0.807805,0.120772 -1.160672,0.132915 -0.102819,0.01504 -0.202744,0.02699 -0.29978,0.03587 -0.780321,0.07139 -1.328583,0.06651 -1.644902,-0.01466 -0.316236,-0.08115 -0.427902,-0.438015 -0.33429,-1.070489 0.02658,-0.332741 0.01275,-0.698517 -0.04162,-1.097265 -0.01526,-0.40233 -0.02982,-0.786372 -0.0437,-1.152127 l -0.02081,-0.548632 c -0.0097,-0.256035 0.06102,-0.464339 0.212304,-0.624953 0.190482,-0.164186 0.579816,-0.273102 1.16795,-0.326752 0.27742,-0.01235 0.55483,-0.02469 0.832228,-0.03704 0.115538,0.0076 0.231074,0.01529 0.346608,0.02294 0.748944,0.08788 1.319056,0.117418 1.710626,0.08859 0.940217,-0.05456 2.569357,-0.05898 4.88711,-0.01325 l 2.180251,0.04302 c 1.099956,0.0217 2.165171,0.207276 3.194374,0.556774 0.395429,0.117535 0.732744,0.270497 1.011942,0.458899 0.279195,0.1884 0.558704,0.395102 0.838486,0.620106 0.440162,0.374499 0.78308,0.801931 1.028989,1.282353 0.284264,0.444594 0.571943,1.053879 0.862687,1.827867 0.247604,0.590225 0.397033,1.178512 0.448731,1.764843 0.05169,0.586242 0.07868,0.934486 0.08104,1.044186 0.04771,0.403507 0.04424,1.153038 -0.01,2.249528 -0.0017,0.823035 -0.0034,1.646069 -0.005,2.469101 0.03565,0.75063 0.07127,1.501261 0.106845,2.251894 z m -13.049828,8.068416 c -0.05759,0.583659 -0.08021,1.058498 -0.06802,1.424271 l 0.06945,2.085145 c 0.01462,0.438991 0.04966,0.914929 0.10504,1.427892 0.09372,0.513715 0.144761,0.89872 0.15325,1.154748 0.141615,0.807257 0.227321,1.668092 0.257506,2.582669 0.02052,0.621864 -0.08022,1.040172 -0.301953,1.254745 -0.221759,0.2146 -0.636698,0.351964 -1.244777,0.412082 -0.227723,0.03169 -0.494214,0.04427 -0.799508,0.03775 -0.207456,-0.0044 -0.41544,-0.02388 -0.623976,-0.05833 -0.02149,-0.0011 -0.04298,-0.0024 -0.06448,-0.0039 -0.19089,-0.01892 -0.438026,-0.01426 -0.741377,0.01398 -0.492928,0.0459 -0.8755,-0.01024 -1.147901,-0.168401 -0.23443,-0.161666 -0.363629,-0.553456 -0.387283,-1.175208 l -0.0042,-0.109726 c -0.01948,-0.51193 -0.008,-1.210641 0.03487,-2.0954 0.02758,-1.287402 -0.011,-2.311148 -0.116523,-3.072341 -0.05761,-0.508559 -0.092,-0.909032 -0.103119,-1.201678 0.02572,-0.332734 0.03445,-0.608794 0.02613,-0.828261 l -0.04578,-1.206991 c -0.02524,-1.172187 -0.0504,-2.344377 -0.0755,-3.516569 -0.01108,-0.292572 -0.04484,-0.674907 -0.101362,-1.146804 -0.01942,-0.51202 -0.02237,-1.099077 -0.0087,-1.760953 -0.0097,-0.256029 -0.03601,-0.950965 -0.07895,-2.084807 -0.04294,-1.133947 0.06469,-1.877699 0.323518,-2.231907 0.298846,-0.321084 0.60413,-0.477585 0.915392,-0.469487 0.309926,-0.02848 0.484259,-0.0445 0.522999,-0.04806 0.08747,-0.008 0.18693,-0.01344 0.298368,-0.01619 0,0 1e-6,0 1e-6,0 0,0 0,0 0,0 0.135816,0.01181 0.289368,0.02948 0.460643,0.053 0.311015,0.0063 0.738662,0.015 1.282939,0.02606 0.583189,0.01184 0.93673,0.128691 1.060628,0.350553 0.161559,0.186082 0.269562,0.517265 0.324092,0.993636 0.05825,0.587157 0.07518,2.285319 0.05245,5.100783 0.01276,0.969018 0.02558,1.938034 0.03844,2.907049 -0.0041,0.456871 -0.0082,0.913741 -0.01228,1.37061 z"
             id="path1372"
             style="fill:#f44336;fill-opacity:1;stroke:#ff4336;stroke-opacity:1"
             inkscape:original-d="m 77.884695,46.345729 q 0.170496,2.443776 0.113664,5.171712 v 1.13664 l -0.05683,3.296256 q -0.113664,3.068928 -0.05683,3.068928 v 1.818624 q 0,1.13664 0.05683,1.818624 0.05683,0.56832 0.05683,1.591296 0,0.681984 -0.227328,0.909312 -0.170496,0.227328 -0.56832,0.340992 -0.397824,0.05683 -0.625152,0.170496 -0.113664,0.05683 -0.625152,0.05683 -0.511488,0.05683 -0.966144,0 0.113664,0.05683 -0.28416,0 -0.909312,-0.05683 -1.250304,-0.227328 -0.340992,-0.170496 -0.397824,-0.340992 -0.05683,-0.227328 -0.05683,-0.909312 v -4.2624 -3.353088 q 0,-0.454656 -0.05683,-1.4208 -0.05683,-1.022976 0,-1.818624 0,-0.340992 -0.05683,-0.625152 -0.05683,-0.28416 -0.05683,-0.511488 l 0.113664,-1.307136 q 0.170496,-2.898432 0.170496,-2.784768 l -0.113664,-4.603392 -0.113664,-4.489728 q 0,-1.13664 -0.625152,-1.98912 -0.56832,-0.85248 -1.932288,-0.85248 -0.170496,0 -1.250304,0.05683 -1.022976,0.05683 -1.875456,-0.05683 -0.909312,-0.05683 -1.591296,0 -0.625152,0.05683 -1.022976,0 -0.454656,0 -1.363968,0.113664 -0.795648,0.170496 -1.4208,0.170496 -1.13664,0 -1.591296,-0.170496 -0.454656,-0.170496 -0.28416,-1.13664 0.05683,-0.511488 0,-1.13664 0,-0.625152 0,-1.193472 v -0.56832 q 0,-0.397824 0.227328,-0.625152 0.28416,-0.227328 1.13664,-0.227328 l 1.13664,0.05683 q 1.079808,0.113664 1.648128,0.05683 1.363968,-0.113664 4.717056,-0.113664 h 2.102784 q 1.591296,0 3.068928,0.511488 0.56832,0.170496 0.966144,0.454656 0.397824,0.28416 0.795648,0.625152 0.625152,0.56832 0.966144,1.307136 0.397824,0.681984 0.795648,1.875456 0.340992,0.909312 0.397824,1.818624 0.05683,0.909312 0.05683,1.079808 0.05683,0.625152 -0.05683,2.330112 l -0.05683,2.55744 z m -13.014528,8.638464 q -0.113664,0.909312 -0.113664,1.477632 v 2.159616 q 0,0.681984 0.05683,1.477632 0.113664,0.795648 0.113664,1.193472 0.170496,1.250304 0.170496,2.671104 0,0.966144 -0.340992,1.307136 -0.340992,0.340992 -1.250304,0.454656 -0.340992,0.05683 -0.795648,0.05683 -0.340992,0 -0.681984,-0.05683 -0.28416,-0.05683 -0.738816,-0.05683 -0.738816,0 -1.13664,-0.28416 -0.340992,-0.28416 -0.340992,-1.250304 v -0.113664 q 0,-0.795648 0.113664,-2.159616 0.113664,-1.98912 0,-3.182592 -0.05683,-0.795648 -0.05683,-1.250304 0.05683,-0.511488 0.05683,-0.85248 v -1.250304 l 0.05683,-3.637248 q 0,-0.454656 -0.05683,-1.193472 0,-0.795648 0.05683,-1.818624 0,-0.397824 0,-2.159616 0,-1.761792 0.397824,-2.27328 0.454656,-0.454656 0.909312,-0.397824 0.454656,0 0.511488,0 0.28416,0 0.738816,0.05683 0.454656,0 1.250304,0 0.85248,0 1.022976,0.340992 0.227328,0.28416 0.28416,1.022976 0.05683,0.909312 -0.113664,5.285376 l -0.05683,3.012096 z" /><path
             d="m 53.237962,42.963091 c 0.03325,0.804502 0.03807,1.39154 0.01453,1.760746 0.0087,0.678342 0.01736,1.356682 0.0261,2.035021 0.06022,0.985637 0.120384,1.971276 0.180489,2.956917 0.06423,0.618327 0.124216,1.603628 0.180142,2.956929 0.02569,0.621671 0.02541,1.080656 -7.95e-4,1.376731 0.0013,0.495481 0.0026,0.99096 0.0039,1.486438 0.0061,0.146656 0.01191,0.751103 0.01775,1.81557 0.0425,1.023968 -0.18306,2.054475 -0.674224,3.091347 -0.453071,1.033279 -1.159082,1.925135 -2.116904,2.675108 -0.330329,0.287758 -0.681012,0.540711 -1.052114,0.758852 -0.335147,0.178213 -0.930678,0.472053 -1.787497,0.882491 -0.594515,0.312428 -1.27047,0.503933 -2.028527,0.574533 -0.702128,0.04703 -1.404295,0.09405 -2.106502,0.141083 -1.440367,0.134139 -2.546455,0.108575 -3.319029,-0.07668 -0.734754,-0.188816 -1.649436,-0.526128 -2.746609,-1.012039 -0.670959,-0.378546 -1.189815,-0.752899 -1.555943,-1.123117 -0.368278,-0.406738 -0.687682,-0.946743 -0.958162,-1.619877 -0.263817,-0.563425 -0.447357,-1.373508 -0.550031,-2.429695 -0.06673,-1.096368 -0.108984,-1.790735 -0.126777,-2.0831 -0.0436,-0.40023 -0.08722,-0.800459 -0.130861,-1.200688 -0.19954,-1.378154 -0.338732,-2.706616 -0.416881,-3.98576 l -0.231088,-3.782438 c -0.01195,-0.513412 -0.02387,-1.026825 -0.03576,-1.540239 0.02828,-0.811237 0.03032,-1.417553 0.0058,-1.819676 -0.02404,-0.714418 -0.04804,-1.428838 -0.072,-2.143258 0.01213,-0.442025 -0.01065,-1.138346 -0.06842,-2.088449 -0.02,-0.328915 -0.05834,-0.637762 -0.115079,-0.926564 -0.05674,-0.288802 -0.09293,-0.561101 -0.108509,-0.816924 -0.230572,-1.853879 -0.369604,-3.162618 -0.416538,-3.930834 -0.04019,-0.657855 -0.0094,-1.119954 0.09261,-1.38654 0.101974,-0.266546 0.368633,-0.419492 0.799844,-0.458831 0.901625,-0.08226 1.529924,-0.121205 1.884837,-0.116843 0.430123,-0.05761 0.86027,-0.115227 1.29044,-0.172841 0.392017,-0.03576 0.709762,0.0087 0.953101,0.133479 0.243371,0.124767 0.378152,0.424705 0.40459,0.899902 0.03865,0.694588 0.04523,1.520409 0.02009,2.478002 0.01613,0.64145 0.03231,1.282898 0.04852,1.924346 0.06335,0.784087 0.12666,1.568177 0.189922,2.352267 0.02038,0.365523 0.02131,0.732828 0.0029,1.101913 -0.02049,0.332538 -0.02049,0.681555 -7e-5,1.047081 0.0674,0.508167 0.134741,1.016336 0.202021,1.524507 0.0265,0.47528 0.02339,1.118304 -0.009,1.929666 -0.03242,0.81115 -0.0362,1.43631 -0.01165,1.874822 0.02866,0.511788 0.102046,1.129495 0.219958,1.853493 0.0499,0.546505 0.09976,1.093012 0.149594,1.639519 0.0143,0.256163 0.08845,0.89168 0.222273,1.908347 0.158178,1.454696 0.262471,2.639716 0.313241,3.553225 0.08734,1.571537 0.571845,2.684423 1.449795,3.337469 0.876248,0.616702 1.788967,0.880899 2.740842,0.792495 0.494983,-0.04597 1.083239,-0.137337 1.765034,-0.274112 0.679974,-0.173334 1.112664,-0.32369 1.29782,-0.451059 0.667926,-0.429249 1.083911,-0.945319 1.247138,-1.548001 0.199606,-0.642627 0.300378,-1.772364 0.302053,-3.388093 0.0034,-1.577782 -0.09149,-4.45477 -0.284943,-8.621547 -0.08613,-1.020093 -0.162459,-2.243529 -0.228741,-3.669382 -0.02821,-1.025581 -0.05637,-2.051165 -0.08446,-3.07675 0.0015,-0.807982 -0.03572,-1.612402 -0.11204,-2.413251 -0.06444,-0.544918 -0.2179,-0.898029 -0.460581,-1.05945 -0.205348,-0.201533 -0.581286,-0.27731 -1.127699,-0.227325 -0.195138,0.01785 -0.798356,0.109752 -1.809323,0.275692 -0.407924,0.07404 -0.815804,0.148088 -1.223639,0.22213 -0.312147,0.02856 -0.528631,0.01163 -0.649478,-0.05077 -0.122727,-0.09896 -0.190761,-0.2764 -0.204022,-0.532296 -0.0095,-0.182789 0.0015,-0.349078 0.03302,-0.498881 -0.05609,-0.325446 -0.115067,-0.705726 -0.176937,-1.140841 -0.02466,-0.475263 -0.02596,-0.879143 -0.0039,-1.211752 l -0.02273,-0.438689 c -0.01326,-0.255908 0.03603,-0.444045 0.147957,-0.564453 0.151116,-0.123978 0.441354,-0.223914 0.870741,-0.299815 0.31177,-0.06517 0.683306,-0.117425 1.114566,-0.156766 0.274435,-0.02504 0.570293,-0.0153 0.887467,0.02921 0.315393,0.0079 0.68776,-0.02603 1.117227,-0.101926 0.468671,-0.07948 1.016663,-0.147829 1.643916,-0.205052 0.628091,-0.03894 1.256147,-0.07788 1.88417,-0.116819 0.784061,-0.07153 1.440432,0.08887 1.968229,0.48123 0.567013,0.388809 0.862786,0.894019 0.888517,1.515753 l 0.07946,1.919976 c 0.02286,1.025772 0.04578,2.051543 0.06876,3.077311 0.03789,0.914194 0.08538,1.589129 0.142373,2.02434 0.05196,0.784493 0.10387,1.568987 0.155736,2.353484 z"
             id="path1374"
             style="fill:#f44336;fill-opacity:1;stroke:#ff4336;stroke-opacity:1"
             inkscape:original-d="m 56.629497,43.674625 q 0,1.250304 -0.05683,1.818624 l -0.05683,2.102784 0.05683,3.068928 q 0.05683,0.966144 0.05683,3.068928 0,0.966144 -0.05683,1.4208 l -0.05683,1.534464 q 0,0.227328 -0.05683,1.875456 0,1.591296 -0.795648,3.12576 -0.738816,1.534464 -2.216448,2.55744 -0.511488,0.397824 -1.079808,0.681984 -0.511488,0.227328 -1.818624,0.738816 -0.909312,0.397824 -2.045952,0.397824 l -2.102784,-0.05683 q -2.159616,0 -3.296256,-0.397824 -1.079808,-0.397824 -2.671104,-1.307136 -0.966144,-0.681984 -1.477632,-1.307136 -0.511488,-0.681984 -0.85248,-1.761792 -0.340992,-0.909312 -0.397824,-2.55744 0,-1.70496 0,-2.159616 l -0.05683,-1.250304 q -0.170496,-2.159616 -0.170496,-4.148736 v -3.921408 l 0.05683,-1.591296 q 0.113664,-1.250304 0.113664,-1.875456 l 0.05683,-2.216448 q 0.05683,-0.681984 0.05683,-2.159616 0,-0.511488 -0.05683,-0.966144 -0.05683,-0.454656 -0.05683,-0.85248 -0.170496,-2.898432 -0.170496,-4.091904 0,-1.022976 0.170496,-1.4208 0.170496,-0.397824 0.795648,-0.397824 1.307136,0 1.818624,0.05683 l 1.250304,-0.05683 q 0.56832,0 0.909312,0.227328 0.340992,0.227328 0.340992,0.966144 0,1.079808 -0.113664,2.55744 l -0.05683,1.98912 0.05683,2.443776 q 0,0.56832 -0.05683,1.13664 -0.05683,0.511488 -0.05683,1.079808 l 0.113664,1.591296 q 0,0.738816 -0.113664,1.98912 -0.113664,1.250304 -0.113664,1.932288 0,0.795648 0.113664,1.932288 l 0.05683,1.70496 q 0,0.397824 0.113664,1.98912 0.113664,2.27328 0.113664,3.69408 0,2.443776 1.250304,3.580416 1.250304,1.079808 2.671104,1.079808 0.738816,0 1.761792,-0.113664 1.022976,-0.170496 1.307136,-0.340992 1.022976,-0.56832 1.307136,-1.477632 0.340992,-0.966144 0.454656,-3.466752 0.113664,-2.443776 0.113664,-8.922624 -0.05683,-1.591296 -0.05683,-3.807744 l 0.05683,-3.182592 q 0.05683,-1.250304 0,-2.500608 -0.05683,-0.85248 -0.397824,-1.13664 -0.28416,-0.340992 -1.079808,-0.340992 -0.28416,0 -1.761792,0.113664 l -1.193472,0.113664 q -0.454656,0 -0.625152,-0.113664 -0.170496,-0.170496 -0.170496,-0.56832 0,-0.28416 0.05683,-0.511488 -0.05683,-0.511488 -0.113664,-1.193472 0,-0.738816 0.05683,-1.250304 v -0.454656 q 0,-0.397824 0.170496,-0.56832 0.227328,-0.170496 0.85248,-0.227328 0.454656,-0.05683 1.079808,-0.05683 0.397824,0 0.85248,0.113664 0.454656,0.05683 1.079808,0 0.681984,-0.05683 1.591296,-0.05683 l 1.818624,0.05683 q 1.13664,0 1.875456,0.681984 0.795648,0.681984 0.795648,1.648128 v 1.98912 l -0.05683,3.182592 q 0,1.4208 0.05683,2.102784 z" /><path
             d="m 26.117758,64.151834 c 0.01499,-0.332277 -0.0056,-0.900439 -0.06182,-1.704121 -0.06888,-0.71064 -0.137811,-1.421279 -0.206779,-2.131916 -0.148001,-1.016077 -0.238775,-1.761044 -0.272101,-2.236194 -0.05123,-0.730378 -0.08477,-1.757444 -0.100104,-3.079458 -0.02558,-0.641113 -0.05112,-1.282227 -0.07662,-1.923343 -0.01394,-0.752491 -0.0278,-1.504986 -0.04157,-2.257484 0.01047,-0.405391 -0.04319,-0.896895 -0.16124,-1.474292 -0.05902,-0.288676 -0.111576,-0.761917 -0.15758,-1.419485 0.02076,-0.259271 0.01456,-0.626431 -0.01863,-1.10135 -0.03574,-0.511278 -0.128081,-1.275322 -0.277255,-2.290947 -0.09759,-0.836437 -0.206693,-2.113884 -0.327005,-3.830687 -0.0512,-0.730561 -0.171052,-1.60224 -0.36002,-2.614352 -0.0724,-0.471364 -0.146151,-0.960992 -0.221244,-1.468884 -0.07509,-0.507893 -0.130692,-1.017569 -0.166715,-1.529034 -0.05403,-0.767196 0.173768,-1.174041 0.683408,-1.220534 0.589319,-0.03538 1.178606,-0.07076 1.76786,-0.106136 l 1.64644,-0.150207 c 0.470426,-0.04292 0.808433,-2.36e-4 1.013933,0.128043 0.203144,0.09175 0.320056,0.375109 0.350919,0.850146 0.03621,0.860483 0.07247,1.720965 0.108784,2.581445 0.02985,1.063251 0.100073,2.141152 0.210289,3.233806 0.02377,0.365501 0.09834,0.909837 0.223528,1.633615 0.134638,0.869708 0.217232,1.542409 0.248002,2.017303 0.03551,0.548079 0.04335,0.970132 0.02358,1.265987 -0.03482,0.664893 -0.02482,1.417434 0.02979,2.257905 0.133944,1.163953 0.267683,2.327914 0.401217,3.491882 0.111911,1.129236 0.149016,2.302022 0.112158,3.518527 -8.54e-4,1.176189 0.0227,2.130167 0.07021,2.860775 l 0.124748,1.91836 0.131877,2.02798 c 0.04277,0.657682 0.09509,1.167558 0.156873,1.529385 0.09981,0.652421 0.199503,1.304847 0.299081,1.957277 0.03201,0.199207 0.06401,0.398413 0.09599,0.597621 0.02129,0.328854 -0.0582,0.575218 -0.238296,0.739021 -0.180109,0.163813 -0.535523,0.270434 -1.066305,0.319858 -0.265401,0.02471 -0.550967,0.03292 -0.856748,0.02463 -0.30823,-0.04483 -0.63304,-0.05136 -0.974328,-0.01958 -0.189605,0.01765 -0.359005,0.05181 -0.508175,0.102466 -0.111252,0.04713 -0.261661,0.07952 -0.451242,0.09717 -0.45499,0.04237 -0.741913,0.03231 -0.860785,-0.03016 -0.121408,-0.099 -0.197527,-0.367728 -0.228249,-0.806119 -0.02199,-0.586302 -0.04394,-1.172605 -0.06586,-1.75891 z"
             id="path1376"
             style="fill:#f44336;fill-opacity:1;stroke:#ff4336;stroke-opacity:1"
             inkscape:original-d="m 28.838673,62.940673 q 0.05683,-0.511488 0.05683,-1.761792 l -0.05683,-2.216448 q -0.113664,-1.591296 -0.113664,-2.330112 0,-1.13664 0.113664,-3.182592 l 0.05683,-1.98912 0.113664,-2.330112 q 0.05683,-0.625152 -0.05683,-1.534464 -0.05683,-0.454656 -0.05683,-1.477632 0.05683,-0.397824 0.05683,-1.13664 0,-0.795648 -0.113664,-2.386944 -0.05683,-1.307136 -0.05683,-3.97824 0,-1.13664 -0.170496,-2.727936 -0.05683,-0.738816 -0.113664,-1.534464 -0.05683,-0.795648 -0.05683,-1.591296 0,-1.193472 0.738816,-1.193472 l 1.70496,0.05683 h 1.591296 q 0.681984,0 0.966144,0.227328 0.28416,0.170496 0.28416,0.909312 l -0.05683,2.671104 q -0.05683,1.648128 0,3.353088 0,0.56832 0.113664,1.70496 0.113664,1.363968 0.113664,2.102784 0,0.85248 -0.05683,1.307136 -0.113664,1.022976 -0.113664,2.330112 l 0.170496,3.637248 q 0.05683,1.761792 -0.113664,3.637248 -0.113664,1.818624 -0.113664,2.955264 v 1.98912 2.102784 q 0,1.022976 0.05683,1.591296 l 0.170496,2.045952 0.05683,0.625152 q 0,0.511488 -0.28416,0.738816 -0.28416,0.227328 -1.079808,0.227328 -0.397824,0 -0.85248,-0.05683 -0.454656,-0.113664 -0.966144,-0.113664 -0.28416,0 -0.511488,0.05683 -0.170496,0.05683 -0.454656,0.05683 -0.681984,0 -0.85248,-0.113664 -0.170496,-0.170496 -0.170496,-0.85248 z" /><path
             d="m 22.070927,53.6048 c 0.16974,1.786072 0.217838,3.234943 0.145351,4.344671 -0.03356,0.591503 -0.03679,1.070019 -0.0099,1.435259 0.07209,1.501025 0.0029,2.647986 -0.206808,3.439632 -0.171654,0.788288 -0.480144,1.534222 -0.924708,2.237616 -0.241298,0.353485 -0.57595,0.734036 -1.003629,1.141684 -0.427679,0.407648 -0.823835,0.720409 -1.188982,0.938346 -0.592713,0.239111 -1.494205,0.433422 -2.70462,0.582915 -1.172565,0.14597 -1.891384,0.2313 -2.156836,0.256017 -0.603645,0.093 -1.207221,0.186008 -1.810729,0.279008 -0.376032,0.07182 -0.867305,0.135967 -1.473862,0.192451 -0.568652,0.05295 -1.0441056,0.07883 -1.4264281,0.07762 -0.3823216,-0.0012 -0.7251717,0.01231 -1.0284867,0.04056 l -1.8198928,0.16946 C 5.8547902,68.796519 5.4293923,68.744139 5.1850781,68.582753 4.9753505,68.381386 4.8535567,68.098153 4.819928,67.733115 4.806476,67.587095 4.782935,67.33156 4.749305,66.966511 4.753665,66.59798 4.722263,66.048534 4.655051,65.318485 4.607997,64.80739 4.652201,64.453569 4.7878325,64.25687 c 0.135617,-0.196676 0.5082937,-0.323308 1.1180064,-0.379907 0.5334492,-0.04952 1.4165607,-0.05787 2.6485074,-0.02501 0.4254822,0.03411 1.0604004,0.04878 1.9046137,0.044 0.211053,-0.0012 0.422095,-0.0024 0.633124,-0.0036 1.904195,-0.176819 3.155041,-0.366571 3.75263,-0.56923 0.635683,-0.206196 1.215773,-0.627995 1.741312,-1.265405 0.278912,-0.356971 0.470312,-0.853044 0.574095,-1.488055 0.100913,-0.671597 0.131485,-1.262968 0.09126,-1.77432 -0.08133,-0.544142 -0.172398,-1.455733 -0.273008,-2.733864 -0.138018,-1.753349 -0.194447,-2.961586 -0.169089,-3.626371 -0.06518,-0.582585 -0.130403,-1.165168 -0.195655,-1.74775 -0.04022,-0.511337 -0.09254,-0.929523 -0.15705,-1.254691 -0.08544,-0.838237 -0.170921,-1.676472 -0.256456,-2.514706 -0.04314,-0.54769 -0.06343,-1.300244 -0.0605,-2.256809 -0.02873,-0.365213 -0.09914,-0.763421 -0.211383,-1.194548 -0.112253,-0.431166 -0.20084,-0.809247 -0.265702,-1.134407 -0.105231,-0.836494 -0.235041,-1.486651 -0.389604,-1.950781 -0.157442,-0.500617 -0.460885,-0.859072 -0.910678,-1.075462 -0.362935,-0.113951 -0.798247,-0.147716 -1.305724,-0.101299 -0.50747,0.04642 -0.800241,0.07319 -0.878313,0.08033 -0.351298,0.03213 -0.992463,0.127568 -1.923072,0.286284 -0.9306304,0.15872 -1.6299209,0.25949 -2.0982735,0.302334 -0.5463858,0.04998 -0.8125745,0.607963 -0.7981936,1.673929 l 0.1098193,1.259642 c 0.083519,0.507837 0.2030879,1.655679 0.3589795,3.444984 l 0.2099479,2.409756 c 0.094097,0.85624 0.1881438,1.712482 0.2821403,2.568726 0.1048914,1.204743 0.1619256,2.083071 0.1711562,2.634156 -0.00667,0.368658 -0.08374,0.596616 -0.2311776,0.68383 -0.1506399,0.05071 -0.4759187,0.09914 -0.9758409,0.145283 l -1.9612627,0.181038 -0.8075763,0.07455 C 4.130342,54.98501 3.8719961,54.916822 3.7398017,54.744946 3.6076153,54.57308 3.5263191,54.322853 3.4960339,53.994319 3.4496624,53.280699 3.4033327,52.567078 3.3570448,51.853456 3.3485444,51.338903 3.3040007,50.643387 3.2233471,49.767337 3.146882,49.14853 3.0703806,48.529725 2.9938427,47.91092 2.9467591,47.39983 2.9451456,46.958252 2.9891324,46.586057 L 2.6213546,42.588747 2.4299087,40.507956 C 2.3828847,39.99686 2.368818,39.630072 2.3877468,39.407445 2.4054611,38.7432 2.3468729,38.104371 2.2115274,37.490923 c -0.00114,-0.441648 0.029098,-0.757283 0.090706,-0.946972 0.061605,-0.189682 0.2458171,-0.335324 0.5527094,-0.436948 0.3460775,-0.105197 0.8898534,-0.210022 1.6313709,-0.314481 0.9587364,-0.105872 1.9175254,-0.211746 2.8763667,-0.317621 l 1.2936314,-0.11802 c 1.4958702,-0.06287 2.6912372,-0.171942 3.5868872,-0.327235 0.389011,-0.07228 0.981599,-0.07115 1.777192,0.0034 0.792666,0.03804 1.470379,0.123338 2.033111,0.255898 0.722313,0.154786 1.400978,0.515814 2.035143,1.083153 0.631424,0.530844 1.176348,1.234915 1.634899,2.11244 0.280568,0.599548 0.586589,1.546124 0.917328,2.839756 0.275598,1.077953 0.446557,2.073744 0.513769,2.986896 0.106003,0.909476 0.172403,1.547331 0.199255,1.912434 0.239444,2.460374 0.478454,4.920764 0.717031,7.381169 z"
             id="path1378"
             style="fill:#f44336;fill-opacity:1;stroke:#ff4336;stroke-opacity:1"
             inkscape:original-d="m 25.599249,51.687937 q 0.05683,2.784768 -0.170496,4.489728 -0.113664,0.909312 -0.113664,1.477632 -0.05683,2.330112 -0.454656,3.523584 -0.340992,1.193472 -1.079808,2.216448 -0.397824,0.511488 -1.079808,1.079808 -0.681984,0.56832 -1.250304,0.85248 -0.909312,0.28416 -2.727936,0.340992 -1.761792,0.05683 -2.159616,0.05683 l -1.818624,0.113664 q -0.56832,0.05683 -1.477632,0.05683 -0.85248,0 -1.4208,-0.05683 -0.56832,-0.05683 -1.022976,-0.05683 H 9.004305 q -0.909312,0 -1.250304,-0.28416 -0.28416,-0.340992 -0.28416,-0.909312 0,-0.227328 0,-0.795648 0.056832,-0.56832 0.056832,-1.70496 0,-0.795648 0.227328,-1.079808 0.227328,-0.28416 1.13664,-0.28416 0.7956481,0 2.614272,0.227328 0.625152,0.113664 1.875456,0.227328 l 0.625152,0.05683 q 2.8416,0 3.750912,-0.227328 0.966144,-0.227328 1.818624,-1.13664 0.454656,-0.511488 0.681984,-1.477632 0.227328,-1.022976 0.227328,-1.818624 -0.05683,-0.85248 -0.05683,-2.8416 0,-2.727936 0.113664,-3.750912 l -0.05683,-1.818624 q 0,-0.795648 -0.05683,-1.307136 l -0.05683,-2.614272 q 0,-0.85248 0.113664,-2.330112 0,-0.56832 -0.113664,-1.250304 -0.113664,-0.681984 -0.170496,-1.193472 -0.05683,-1.307136 -0.227328,-2.045952 -0.170496,-0.795648 -0.795648,-1.193472 -0.511488,-0.227328 -1.250304,-0.227328 -0.738816,0 -0.85248,0 -0.511488,0 -1.875456,0.113664 -1.363968,0.113664 -2.045952,0.113664 -0.795648,0 -0.909312,1.648128 v 1.307136 q 0.05683,0.795648 0.05683,3.580416 v 2.500608 l 0.05683,2.671104 q 0,1.875456 -0.05683,2.727936 -0.05683,0.56832 -0.28416,0.681984 -0.227328,0.05683 -0.966144,0.05683 H 9.117969 8.322321 q -0.56832,0 -0.738816,-0.28416 -0.170496,-0.28416 -0.170496,-0.795648 L 7.469841,48.107521 Q 7.526673,47.311873 7.526673,45.947905 L 7.469841,44.015617 q 0,-0.795648 0.113664,-1.363968 v -4.148736 -2.159616 q 0,-0.795648 0.056832,-1.13664 0.113664,-1.022976 0,-1.98912 0.056832,-0.681984 0.170496,-0.966144 0.113664,-0.28416 0.56832,-0.397824 0.511488,-0.113664 1.5912961,-0.170496 l 2.7847679,-0.05683 h 1.250304 q 2.159616,0.113664 3.466752,0 0.56832,-0.05683 1.70496,0.170496 1.13664,0.170496 1.932288,0.454656 1.022976,0.340992 1.875456,1.307136 0.85248,0.909312 1.4208,2.330112 0.340992,0.966144 0.681984,3.012096 0.28416,1.70496 0.28416,3.12576 0.05683,1.4208 0.05683,1.98912 z" /></g><g
           aria-label="כל הטופ"
           id="text1366"
           style="font-size:27.648px;font-family:'Guttman Yad-Brush';-inkscape-font-specification:'Guttman Yad-Brush, Normal';display:inline;fill:#f44336;fill-rule:evenodd;stroke:#f44336;stroke-width:0;stroke-linejoin:round;stroke-miterlimit:2.3;fill-opacity:1"
           transform="matrix(1.019597,0,0,2.0880052,-7.1241632,-253.78323)"
           inkscape:path-effect="#path-effect2050"
           class="UnoptimicedTransforms"><path
             d="m 126.89482,147.033 c -0.0402,2.19745 -1.01427,4.33831 -2.91037,6.4223 -1.52659,1.70756 -3.28256,3.03332 -5.26919,3.97687 -1.97773,0.94379 -4.15784,1.3934 -6.54602,1.34887 -0.53908,-1.46402 -0.80469,-2.80995 -0.79456,-4.0383 0.38484,-0.4662 0.77004,-0.9324 1.15559,-1.3986 0.76188,0.093 1.23352,0.14124 1.41507,0.14461 1.24366,0.0231 2.57182,-0.23966 3.98686,-0.78825 1.41513,-0.55984 2.648,-1.29224 3.69874,-2.19707 0.57119,-0.47411 1.10455,-1.11805 1.60038,-1.93175 0.58929,-0.95859 0.89065,-1.79835 0.90255,-2.51962 0.0126,-0.76633 -0.13393,-1.2875 -0.44008,-1.56371 -0.24347,-0.19611 -0.70323,-0.30039 -1.37915,-0.31284 -1.17829,-0.0217 -3.78466,0.86594 -7.79723,2.66282 -0.92002,-0.98625 -1.49951,-2.01132 -1.73652,-3.07509 0.28396,-0.58083 0.56824,-1.16167 0.85284,-1.74251 3.03193,-1.37562 5.52044,-2.04573 7.45291,-2.01026 1.29139,0.0237 2.16515,0.0961 2.62121,0.21719 0.82057,0.24052 1.54875,0.78367 2.1836,1.62954 0.71586,0.93787 1.04939,2.66242 1.00337,5.1758 z"
             id="path2037"
             inkscape:original-d="m 127.09429,145.9593 q 0,2.6325 -2.7675,5.1705 -2.2275,2.079 -5.1705,3.2535 -2.9295,1.1745 -6.4935,1.1745 -0.8235,-1.7415 -0.8235,-3.213 l 1.134,-1.134 q 1.134,0.0945 1.404,0.0945 1.8495,0 3.942,-0.6885 2.0925,-0.702 3.6315,-1.809 0.837,-0.5805 1.5525,-1.566 0.8505,-1.161 0.8505,-2.025 0,-0.918 -0.459,-1.242 -0.3645,-0.2295 -1.3635,-0.2295 -1.7415,0 -7.6545,2.241 -1.377,-1.161 -1.7415,-2.43 l 0.8235,-1.404 q 4.455,-1.7145 7.3035,-1.7145 1.9035,0 2.5785,0.135 1.215,0.27 2.1735,1.269 1.08,1.107 1.08,4.1175 z"
             style="fill:#f44336;fill-opacity:1" /><path
             d="m 113.85006,125.33856 c -0.0131,1.35224 -0.23435,2.71759 -0.66214,4.09608 -0.47281,0.26753 -0.94537,0.53505 -1.41768,0.80258 -0.56797,-0.41607 -1.16114,-0.62973 -1.77883,-0.64097 -1.22616,-0.0223 -2.1183,0.33899 -2.6752,1.08391 -0.3434,0.45578 -0.69923,1.54809 -1.06612,3.27685 -0.24489,1.21262 -0.48464,2.43094 -0.71928,3.65499 -0.48749,2.41394 -0.97272,4.82787 -1.45572,7.2418 1.99027,-0.0704 3.98096,-0.14074 5.97206,-0.21112 -0.24004,0.9817 -0.47963,1.9634 -0.71877,2.9451 -1.89509,-0.0745 -3.79033,-0.14891 -5.68571,-0.22336 -0.38113,2.37053 -0.90117,4.53047 -1.5587,6.47883 -1.00492,3.10274 -2.07724,4.64337 -3.226155,4.62195 -0.86847,-0.0162 -2.062115,-0.76526 -3.587464,-2.24714 -1.8978,-1.86079 -2.854692,-3.54009 -2.860939,-5.03885 -0.0025,-0.59717 0.199207,-1.26386 0.605939,-1.99994 1.256244,-2.33168 3.96099,-3.68993 8.115499,-4.0755 0.41594,-3.44047 0.83465,-6.88096 1.25611,-10.32146 0.0938,-0.83166 0.29437,-2.05165 0.60255,-3.65696 0.45603,-1.74965 1.42461,-3.45046 2.91072,-5.10264 0.36226,-0.41038 0.68279,-0.72013 0.96126,-0.92919 1.08577,-0.75791 2.33307,-1.12413 3.73947,-1.09866 1.45265,0.0263 2.53754,0.32208 3.25352,0.88732 z m -13.06448,22.0914 c -1.2486,0.13469 -2.155095,0.29823 -2.719768,0.49062 -1.156776,0.44066 -1.733417,1.1341 -1.731901,2.08066 0.0011,0.67606 0.252218,1.30046 0.752534,1.87311 0.509415,0.57283 1.045196,0.86447 1.608186,0.87492 0.871726,0.0162 1.566899,-1.75691 2.090949,-5.31931 z"
             id="path2039"
             inkscape:original-d="m 114.01278,128.8278 q 0,1.62 -0.6075,3.2805 l -1.377,0.6615 q -0.837,-0.486 -1.7415,-0.486 -1.7955,0 -2.6055,0.9045 -0.4995,0.5535 -1.026,2.6325 -0.351,1.458 -0.6885,2.9295 l -1.404,5.805 5.886,-0.2565 -0.6885,2.3625 -5.616,-0.0945 q -0.5535,2.8485 -1.5255,5.1975 -1.485,3.7395 -3.199498,3.7395 -1.296,0 -3.564,-1.7415 -2.8215,-2.187 -2.8215,-3.9825 0,-0.7155 0.6075,-1.6065 1.8765,-2.8215 8.018998,-3.375 l 1.215,-8.262 q 0.135,-0.999 0.5805,-2.9295 0.6615,-2.106 2.8215,-4.1175 0.5265,-0.4995 0.9315,-0.756 1.5795,-0.9315 3.6315,-0.9315 2.1195,0 3.1725,0.6615 z m -12.69,17.8335 q -1.849498,0.189 -2.686498,0.432 -1.7145,0.5535 -1.7145,1.6875 0,0.81 0.7425,1.485 0.756,0.675 1.593,0.675 1.295998,0 2.065498,-4.2795 z"
             style="fill:#f44336;fill-opacity:1" /><path
             d="m 76.479994,146.2183 c 0.02875,0.55143 0.03655,0.96315 0.02343,1.23497 -0.01313,0.27192 -0.08812,0.66621 -0.224659,1.18322 -0.368795,1.28852 -0.741286,2.38531 -1.118358,3.29047 -1.604545,3.85282 -3.176041,6.13954 -4.744134,6.86225 -1.152384,-0.91902 -1.880484,-2.26174 -2.179361,-4.02664 0.257998,-0.36114 0.516314,-0.72229 0.774949,-1.08346 0.829517,-0.0536 1.789252,-1.15461 2.891763,-3.30369 0.97218,-1.89263 1.426844,-3.48515 1.354814,-4.77959 -0.06512,-1.17026 -0.744611,-1.71375 -2.038474,-1.63046 -1.258471,0.081 -2.777973,0.56871 -4.551517,1.46277 -1.101234,0.54672 -2.303626,1.24658 -3.612421,2.10027 -1.022883,-0.75042 -1.806638,-1.61669 -2.354253,-2.59925 0.271487,-0.62626 0.541913,-1.25247 0.811278,-1.87865 1.538481,-1.06439 3.153716,-1.88275 4.851605,-2.45514 1.590311,-0.53857 3.259433,-0.864 5.003913,-0.97614 0.503518,-0.0324 1.10438,0.1097 1.801391,0.42625 2.050049,1.00968 3.148007,3.06575 3.310032,6.17282 z m -10.062156,6.06721 c 0.07756,1.25967 -0.321171,2.67337 -1.208221,4.23998 -0.681913,1.21577 -1.548199,2.34072 -2.600916,3.37553 -1.149689,-0.41591 -2.095958,-1.36286 -2.836286,-2.84194 0.19928,-0.45235 0.398015,-0.90467 0.596203,-1.35698 1.584362,-0.64993 2.32503,-1.81743 2.233253,-3.50577 -0.08794,-0.24314 -0.279787,-0.59811 -0.574962,-1.06568 0.160637,-0.39364 0.32088,-0.78727 0.480729,-1.18088 0.245252,-0.1053 0.715158,-0.17915 1.409816,-0.22157 1.556101,-0.095 2.389562,0.75741 2.500384,2.55731 z"
             id="path2041"
             inkscape:original-d="m 77.157786,145.3788 q 0,0.6615 -0.0405,0.9855 -0.0405,0.324 -0.2835,0.9315 -0.648,1.512 -1.2825,2.565 -2.7,4.482 -5.1165,5.2245 -1.647,-1.188 -1.9305,-3.321 l 0.837,-0.8235 q 1.242,0 3.0645,-2.484 1.6065,-2.187 1.6065,-3.7395 0,-1.404 -1.917,-1.404 -3.0105,0 -8.208,2.43 -1.431,-0.972 -2.16,-2.187 l 0.891,-1.458 q 4.536,-2.241 9.8685,-2.241 0.7425,0 1.7415,0.432 2.9295,1.3635 2.9295,5.0895 z m -10.287,4.32 q 0,1.512 -1.404,3.321 -1.08,1.404 -2.6595,2.565 -1.6065,-0.5805 -2.565,-2.403 l 0.6345,-1.053 q 2.322,-0.6615 2.322,-2.6865 -0.108,-0.297 -0.4995,-0.8775 l 0.5265,-0.918 q 0.3645,-0.108 1.377,-0.108 2.268,0 2.268,2.16 z"
             style="fill:#f44336;fill-opacity:1" /><path
             d="m 57.051908,147.89565 c 0.138401,3.13051 -0.715794,6.00229 -2.606965,8.62377 -0.346103,0.47759 -0.705257,0.91414 -1.077301,1.3097 -1.333039,1.63312 -2.766439,2.41406 -4.437675,2.36891 -1.0085,-0.0272 -1.991372,-0.59992 -3.003975,-1.70725 -0.353355,-0.29278 -0.709909,-0.65604 -1.071015,-1.08931 -0.832566,-1.00568 -1.411171,-2.3434 -1.687098,-4.00609 -0.289393,-1.74383 -0.0073,-4.1164 1.013744,-7.0893 0.424859,-1.02878 0.975904,-2.12899 1.669417,-3.2996 1.979578,-3.31737 4.267617,-6.00105 6.683362,-8.01688 0.0647,-0.0625 0.129355,-0.12439 0.193975,-0.18566 0.419814,0.0248 0.839752,0.0497 1.259814,0.0745 0.686632,0.73605 1.13656,1.76981 1.346202,3.09974 -0.907565,0.86379 -1.773125,1.73078 -2.596072,2.60089 -1.197072,1.16705 -2.251385,2.33589 -3.172959,3.50855 -2.474636,3.1304 -3.398202,5.5874 -3.180234,7.348 0.137181,1.10807 0.546137,2.01764 1.19798,2.72317 0.651844,0.69577 1.368579,1.05146 2.170584,1.06258 0.98359,0.0136 1.870405,-0.39817 2.703391,-1.24315 0.293146,-0.30953 0.538186,-0.64326 0.733565,-1.00064 0.456308,-0.75423 0.665643,-1.5865 0.631157,-2.49751 -0.05091,-1.34476 -0.316424,-2.022 -0.796395,-2.03174 0,0 0,0 0,0 -0.01334,-0.001 -0.02686,-0.002 -0.04055,-0.002 -0.171693,2.3e-4 -0.378719,0.0962 -0.618341,0.28757 -0.336238,-0.4383 -0.677585,-0.87574 -1.02404,-1.31232 0.306445,-1.5201 0.814379,-2.63376 1.523349,-3.34794 0.618424,-0.64862 1.368308,-1.00001 2.253034,-1.05432 0.502431,-0.0308 0.961323,0.65768 1.381098,2.06541 0.332303,1.08601 0.517105,2.02234 0.551953,2.81056 z"
             id="path2043"
             inkscape:original-d="m 58.028285,145.7433 q 0,3.753 -2.862,6.75 -2.862,2.9835 -6.6285,2.9835 -2.511,0 -4.4415,-2.43 -1.161,-1.4715 -1.161,-3.51 0,-2.997 4.3065,-7.965 3.591,-4.1175 7.047,-6.48 l 1.2555,0.1215 q 0.9855,0.9315 1.215,2.538 -3.375,2.322 -5.9535,4.725 -4.0635,3.7665 -4.0635,5.9265 0,1.35 0.972,2.2005 0.972,0.837 2.349,0.837 1.6875,0 3.159,-1.026 1.566,-1.134 1.566,-2.7675 0,-1.6605 -0.7425,-1.6605 -0.27,0 -0.6615,0.2295 l -0.999,-1.053 q 1.134,-3.402 3.9555,-3.402 0.7425,0 1.269,1.7145 0.4185,1.323 0.4185,2.268 z"
             style="fill:#f44336;fill-opacity:1" /><path
             d="m 38.327503,138.37617 c 0.487435,10.54645 0.391656,18.79927 -0.365534,24.09668 -0.895357,0.27556 -1.718716,0.0594 -2.492714,-0.64642 -0.155569,-0.3881 -0.311808,-0.77609 -0.468714,-1.16399 0.984018,-5.33263 0.88192,-12.06863 -0.899895,-19.67342 0.688353,-1.25796 1.622078,-2.36288 2.797231,-3.31761 0.480669,0.23432 0.957211,0.46924 1.429626,0.70476 z"
             id="path2045"
             inkscape:original-d="m 40.775286,136.7793 q -2.079,12.609 -5.724,18.5625 -1.660501,0 -2.632501,-1.08 l -0.162,-0.999 q 4.144501,-5.859 4.144501,-15.3495 1.35,-1.242 3.1995,-1.9845 z"
             style="fill:#f44336;fill-opacity:1" /><path
             d="m 29.225297,148.496 c 0.959344,3.39486 0.85322,7.023 -0.314044,10.88305 -0.588239,1.91376 -1.342281,3.42358 -2.262608,4.52955 -0.920332,1.10598 -2.091478,1.86151 -3.514002,2.26676 -1.527895,0.43526 -2.861046,0.27009 -3.999997,-0.49536 -1.141985,-0.77626 -1.978919,-2.09663 -2.510058,-3.96102 -0.265572,-0.9322 -0.09757,-2.09344 0.504643,-3.4838 0.611015,-1.39289 1.303798,-2.19966 2.077683,-2.42012 1.527378,0.25636 2.705903,0.87573 3.535878,1.85813 -0.07293,0.3958 -0.145838,0.79159 -0.218719,1.18737 -0.189422,0.0188 -0.378847,0.0376 -0.568274,0.0564 -1.314386,0.92526 -1.838743,1.85395 -1.57362,2.78631 0.06782,0.23851 0.308068,0.3986 0.720696,0.48028 0.320765,0.0258 0.604143,0.004 0.850152,-0.0664 0.650167,-0.18522 1.355483,-0.76117 2.116371,-1.72797 1.302071,-1.63658 2.045541,-3.706 2.230219,-6.20792 0.130574,-1.61938 0.08252,-2.83026 -0.144683,-3.63283 -0.337718,-1.19292 -0.840982,-1.69413 -1.509791,-1.5036 -1.927227,0.54901 -3.915299,2.05877 -5.96141,4.52848 -0.905741,-0.1756 -1.720209,-0.56472 -2.443406,-1.16734 -0.07619,-0.65216 -0.152359,-1.30433 -0.228498,-1.95651 0.139837,-0.34454 0.439216,-0.76383 0.898208,-1.25788 2.035758,-2.24409 4.089467,-3.66121 6.15872,-4.25068 0.563541,-0.16053 0.955583,-0.25464 1.176121,-0.2823 0.96755,-0.11155 1.959229,0.21535 2.974701,0.98082 1.015479,0.76548 1.683889,1.71769 2.005718,2.85655 z"
             id="path2047"
             inkscape:original-d="m 29.988785,142.6518 q 0,4.2255 -3.213,8.289 -1.6065,2.0115 -3.3615,2.9835 -1.755,0.972 -3.942,0.972 -2.349,0 -3.6585,-1.2555 -1.3095,-1.269 -1.3095,-3.591 0,-1.161 1.4175,-2.565 1.431,-1.404 2.619,-1.404 2.0655,0.7965 2.8485,2.2005 l -0.5265,0.864 -0.5535,-0.081 q -2.241,0.6345 -2.241,1.7955 0,0.297 0.5535,0.5265 0.4455,0.135 0.8235,0.135 0.999,0 2.4705,-0.864 2.511,-1.458 3.78,-4.2795 0.837,-1.8225 0.837,-2.8215 0,-1.485 -1.026,-1.485 -2.9565,0 -6.858,2.1735 -1.215,-0.4995 -1.998,-1.431 l 0.3105,-1.5525 q 0.3375,-0.351 1.188,-0.7695 3.7935,-1.917 6.966,-1.917 0.864,0 1.188,0.0405 1.4175,0.189 2.5515,1.404 1.134,1.215 1.134,2.6325 z"
             style="fill:#f44336;fill-opacity:1" /></g><text
           xml:space="preserve"
           style="font-style:normal;font-variant:normal;font-weight:normal;font-stretch:normal;font-size:27.648px;font-family:'Guttman Yad-Brush';-inkscape-font-specification:'Guttman Yad-Brush, Normal';font-variant-ligatures:normal;font-variant-caps:normal;font-variant-numeric:normal;font-variant-east-asian:normal;display:inline;fill:#ff0000;fill-rule:evenodd;stroke:#f44336;stroke-width:0;stroke-linejoin:round;stroke-miterlimit:2.3;stroke-opacity:1"
           x="52.698257"
           y="176.70871"
           id="text2035"><tspan
             sodipodi:role="line"
             id="tspan2033"
             style="font-style:normal;font-variant:normal;font-weight:normal;font-stretch:normal;font-size:27.648px;font-family:'Guttman Yad-Brush';-inkscape-font-specification:'Guttman Yad-Brush, Normal';font-variant-ligatures:normal;font-variant-caps:normal;font-variant-numeric:normal;font-variant-east-asian:normal;fill:#ff0000;stroke:#f44336;stroke-width:0;stroke-opacity:1"
             x="52.698257"
             y="176.70871">כל הטופ</tspan></text></g></g></g></svg>
